<svg width="38" height="15" viewBox="0 0 38 15" fill="none" xmlns="http://www.w3.org/2000/svg">
<g clip-path="url(#clip0_25_22)">
<path d="M0 9.75L1.66829 7.07352H13.9024L14.4585 6.11764H2.22439L5.93171 0H38L35.0342 5.54412H32.2536L34.6635 9.75H28.1756L26.1365 6.11764H22.9855L24.4684 3.82352H29.4731V2.86764H11.3073L10.3805 3.82352L22.6146 4.20588L19.2781 9.75H0Z" fill="white"/>
<path d="M1.80762 12.1511C1.79528 12.0322 1.74325 11.9397 1.65154 11.8734C1.56071 11.8072 1.44255 11.7741 1.29705 11.7741C1.19476 11.7741 1.10702 11.7899 1.03383 11.8217C0.960637 11.8535 0.904641 11.8966 0.865843 11.951C0.827042 12.0055 0.8072 12.0676 0.806321 12.1375C0.806321 12.1956 0.819105 12.2459 0.844678 12.2886C0.871133 12.3312 0.906846 12.3675 0.95182 12.3975C0.996791 12.4265 1.04661 12.451 1.10129 12.471C1.15596 12.4909 1.21107 12.5077 1.26663 12.5213L1.52059 12.5867C1.62288 12.6112 1.7212 12.6443 1.81556 12.686C1.91079 12.7278 1.99589 12.7804 2.07084 12.8439C2.14668 12.9075 2.20664 12.9841 2.25073 13.074C2.29483 13.1638 2.31686 13.2691 2.31686 13.3897C2.31686 13.5531 2.27631 13.6969 2.19518 13.8212C2.11405 13.9446 1.99677 14.0413 1.84333 14.1112C1.69078 14.1801 1.50604 14.2146 1.28911 14.2146C1.07836 14.2146 0.895383 14.181 0.740182 14.1139C0.585866 14.0467 0.465058 13.9487 0.377758 13.8199C0.291339 13.691 0.244604 13.534 0.237549 13.3489H0.720343C0.727396 13.446 0.756498 13.5268 0.807642 13.5912C0.858788 13.6556 0.925365 13.7037 1.00737 13.7355C1.09026 13.7672 1.18286 13.7831 1.28515 13.7831C1.39184 13.7831 1.48532 13.7668 1.56556 13.7341C1.64669 13.7006 1.71018 13.6543 1.75604 13.5953C1.80189 13.5354 1.82526 13.4655 1.82614 13.3857C1.82526 13.3131 1.80454 13.2532 1.76397 13.206C1.72341 13.1579 1.66653 13.118 1.59334 13.0862C1.52103 13.0536 1.43638 13.0245 1.33938 12.9991L1.03118 12.9174C0.808083 12.8584 0.63172 12.7691 0.502092 12.6493C0.373349 12.5286 0.308975 12.3684 0.308975 12.1688C0.308975 12.0046 0.352184 11.8607 0.438603 11.7373C0.525903 11.6139 0.644506 11.5181 0.794414 11.4501C0.944324 11.3811 1.11407 11.3466 1.30366 11.3466C1.4959 11.3466 1.66433 11.3811 1.80894 11.4501C1.95444 11.5181 2.06864 11.613 2.15153 11.7346C2.23442 11.8553 2.27719 11.9941 2.27983 12.1511H1.80762Z" fill="white"/>
<path d="M3.06799 14.9565C3.00274 14.9565 2.94232 14.951 2.88677 14.9401C2.8321 14.9301 2.78845 14.9183 2.75583 14.9047L2.86693 14.5209C2.9366 14.5417 2.99876 14.5517 3.05343 14.5508C3.10812 14.5499 3.15616 14.5322 3.19762 14.4977C3.23994 14.4642 3.27566 14.4079 3.30475 14.329L3.34576 14.216L2.60901 12.0817H3.11692L3.58518 13.6606H3.60633L4.0759 12.0817H4.58514L3.77167 14.4256C3.73376 14.5363 3.6835 14.6311 3.62089 14.7101C3.55829 14.7899 3.48156 14.8507 3.39072 14.8925C3.30079 14.9351 3.19321 14.9565 3.06799 14.9565Z" fill="white"/>
<path d="M5.43256 12.9473V14.1724H4.95374V12.0817H5.41139V12.4369H5.4352C5.48194 12.3199 5.55644 12.2268 5.65875 12.1579C5.76191 12.0889 5.88935 12.0544 6.04101 12.0544C6.18123 12.0544 6.30335 12.0853 6.40742 12.147C6.51235 12.2087 6.59346 12.2981 6.65077 12.4151C6.709 12.5322 6.73765 12.6742 6.73677 12.8412V14.1724H6.25793V12.9174C6.25793 12.7777 6.22266 12.6683 6.15211 12.5894C6.08245 12.5104 5.98589 12.4709 5.86243 12.4709C5.77867 12.4709 5.70417 12.49 5.63891 12.5281C5.57454 12.5653 5.52383 12.6193 5.4868 12.6901C5.45063 12.7609 5.43256 12.8466 5.43256 12.9473Z" fill="white"/>
<path d="M8.01478 14.2092C7.85518 14.2092 7.71232 14.167 7.58622 14.0826C7.46012 13.9982 7.36048 13.8757 7.28728 13.7151C7.21409 13.5545 7.17749 13.3594 7.17749 13.1298C7.17749 12.8975 7.21454 12.7015 7.2886 12.5417C7.36355 12.3811 7.46453 12.26 7.59151 12.1783C7.71849 12.0957 7.86002 12.0545 8.01609 12.0545C8.13514 12.0545 8.23303 12.0753 8.30975 12.1171C8.38646 12.1579 8.4473 12.2074 8.49229 12.2654C8.53726 12.3226 8.57209 12.3766 8.59677 12.4274H8.61663V11.3848H9.09676V14.1724H8.62588V13.843H8.59677C8.57209 13.8938 8.53637 13.9478 8.48964 14.005C8.44289 14.0613 8.38116 14.1094 8.30446 14.1493C8.22774 14.1892 8.13118 14.2092 8.01478 14.2092ZM8.14837 13.8049C8.24979 13.8049 8.3362 13.7768 8.40763 13.7205C8.47906 13.6633 8.53328 13.5839 8.57033 13.4823C8.60735 13.3807 8.62588 13.2623 8.62588 13.1271C8.62588 12.9918 8.60735 12.8743 8.57033 12.7745C8.53416 12.6747 8.48037 12.5971 8.40894 12.5417C8.33841 12.4864 8.25156 12.4587 8.14837 12.4587C8.04167 12.4587 7.9526 12.4873 7.88119 12.5445C7.80976 12.6016 7.75597 12.6806 7.7198 12.7813C7.68366 12.882 7.66559 12.9973 7.66559 13.1271C7.66559 13.2577 7.68366 13.3743 7.7198 13.4769C7.75685 13.5785 7.81107 13.6588 7.8825 13.7178C7.95482 13.7759 8.04344 13.8049 8.14837 13.8049Z" fill="white"/>
<path d="M10.5436 14.2132C10.34 14.2132 10.164 14.1697 10.0159 14.0826C9.86862 13.9945 9.7553 13.8702 9.67593 13.7096C9.59658 13.5481 9.55688 13.358 9.55688 13.1393C9.55688 12.9242 9.59658 12.7355 9.67593 12.573C9.75618 12.4097 9.86817 12.2827 10.0119 12.1919C10.1557 12.1003 10.3245 12.0544 10.5185 12.0544C10.6437 12.0544 10.7619 12.0753 10.873 12.1171C10.985 12.1579 11.0838 12.2214 11.1693 12.3076C11.2557 12.3938 11.3236 12.5036 11.373 12.637C11.4224 12.7695 11.4471 12.9274 11.4471 13.1107V13.2618H9.78176V12.9297H10.9881C10.9872 12.8353 10.9674 12.7513 10.9285 12.6778C10.8898 12.6034 10.8355 12.5449 10.7659 12.5023C10.6971 12.4596 10.6168 12.4383 10.5251 12.4383C10.4272 12.4383 10.3413 12.4628 10.2672 12.5118C10.1931 12.5599 10.1354 12.6234 10.0939 12.7023C10.0533 12.7804 10.0326 12.8661 10.0317 12.9596V13.2495C10.0317 13.3711 10.0533 13.4755 10.0966 13.5626C10.1398 13.6488 10.2002 13.7151 10.2778 13.7613C10.3554 13.8067 10.4462 13.8294 10.5503 13.8294C10.6199 13.8294 10.683 13.8194 10.7394 13.7994C10.7958 13.7786 10.8448 13.7482 10.8862 13.7083C10.9277 13.6683 10.959 13.6189 10.9801 13.5599L11.4272 13.6116C11.399 13.7332 11.3452 13.8394 11.2658 13.9301C11.1874 14.0199 11.0868 14.0898 10.9643 14.1397C10.8417 14.1887 10.7015 14.2132 10.5436 14.2132Z" fill="white"/>
<path d="M11.8894 14.1724V12.0817H12.3537V12.4301H12.3748C12.4119 12.3094 12.4754 12.2164 12.5653 12.1511C12.6561 12.0849 12.7597 12.0517 12.8761 12.0517C12.9026 12.0517 12.9321 12.0531 12.9648 12.0558C12.9983 12.0576 13.0261 12.0608 13.0481 12.0653V12.5186C13.0278 12.5113 12.9956 12.505 12.9515 12.4996C12.9083 12.4932 12.8665 12.49 12.8259 12.49C12.7386 12.49 12.6601 12.5095 12.5904 12.5486C12.5217 12.5867 12.4674 12.6398 12.4277 12.7078C12.3881 12.7759 12.3682 12.8544 12.3682 12.9433V14.1724H11.8894Z" fill="white"/>
<path d="M14.3859 14.1724V11.3848H15.4017C15.6098 11.3848 15.7844 11.422 15.9255 11.4964C16.0675 11.5708 16.1746 11.6751 16.2469 11.8094C16.3201 11.9428 16.3567 12.0985 16.3567 12.2763C16.3567 12.4551 16.3197 12.6103 16.2456 12.7418C16.1724 12.8725 16.0644 12.9737 15.9215 13.0454C15.7787 13.1161 15.6032 13.1516 15.3951 13.1516H14.6716V12.7323H15.329C15.4507 12.7323 15.5503 12.7151 15.6279 12.6806C15.7055 12.6452 15.7628 12.5939 15.7998 12.5268C15.8378 12.4587 15.8567 12.3752 15.8567 12.2763C15.8567 12.1774 15.8378 12.093 15.7998 12.0231C15.7619 11.9524 15.7042 11.8988 15.6266 11.8625C15.549 11.8253 15.4489 11.8067 15.3263 11.8067H14.8766V14.1724H14.3859ZM15.7853 12.9093L16.4559 14.1724H15.9083L15.2496 12.9093H15.7853Z" fill="white"/>
<path d="M17.6949 14.2132C17.4912 14.2132 17.3152 14.1697 17.1671 14.0826C17.0198 13.9945 16.9065 13.8702 16.8272 13.7096C16.7478 13.5481 16.7081 13.358 16.7081 13.1393C16.7081 12.9242 16.7478 12.7355 16.8272 12.573C16.9074 12.4097 17.0194 12.2827 17.1631 12.1919C17.3069 12.1003 17.4758 12.0544 17.6697 12.0544C17.795 12.0544 17.9131 12.0753 18.0242 12.1171C18.1362 12.1579 18.235 12.2214 18.3205 12.3076C18.4069 12.3938 18.4748 12.5036 18.5242 12.637C18.5736 12.7695 18.5983 12.9274 18.5983 13.1107V13.2618H16.933V12.9297H18.1393C18.1384 12.8353 18.1186 12.7513 18.0798 12.6778C18.041 12.6034 17.9868 12.5449 17.9171 12.5023C17.8483 12.4596 17.7681 12.4383 17.6764 12.4383C17.5785 12.4383 17.4925 12.4628 17.4184 12.5118C17.3444 12.5599 17.2866 12.6234 17.2452 12.7023C17.2046 12.7804 17.1839 12.8661 17.183 12.9596V13.2495C17.183 13.3711 17.2046 13.4755 17.2478 13.5626C17.291 13.6488 17.3514 13.7151 17.429 13.7613C17.5066 13.8067 17.5974 13.8294 17.7015 13.8294C17.7712 13.8294 17.8342 13.8194 17.8906 13.7994C17.9471 13.7786 17.996 13.7482 18.0375 13.7083C18.0789 13.6683 18.1102 13.6189 18.1314 13.5599L18.5785 13.6116C18.5502 13.7332 18.4964 13.8394 18.4171 13.9301C18.3386 14.0199 18.2381 14.0898 18.1155 14.1397C17.9929 14.1887 17.8527 14.2132 17.6949 14.2132Z" fill="white"/>
<path d="M19.9268 14.2132C19.724 14.2132 19.5498 14.1674 19.4043 14.0758C19.2597 13.9841 19.1481 13.8575 19.0697 13.696C18.9921 13.5336 18.9532 13.3466 18.9532 13.1352C18.9532 12.9228 18.9929 12.7355 19.0723 12.573C19.1517 12.4097 19.2636 12.2827 19.4083 12.1919C19.5538 12.1003 19.7257 12.0544 19.9241 12.0544C20.089 12.0544 20.235 12.0858 20.362 12.1483C20.4898 12.2101 20.5917 12.2976 20.6675 12.4111C20.7433 12.5236 20.7865 12.6552 20.7971 12.8058H20.3395C20.321 12.7051 20.2769 12.6211 20.2072 12.554C20.1384 12.4859 20.0463 12.4519 19.9308 12.4519C19.8329 12.4519 19.7469 12.4791 19.6728 12.5336C19.5987 12.5871 19.541 12.6642 19.4995 12.765C19.459 12.8657 19.4387 12.9864 19.4387 13.127C19.4387 13.2695 19.459 13.392 19.4995 13.4945C19.5401 13.5962 19.597 13.6747 19.6702 13.73C19.7442 13.7845 19.8311 13.8117 19.9308 13.8117C20.0013 13.8117 20.0643 13.7981 20.1199 13.7709C20.1763 13.7427 20.2235 13.7023 20.2614 13.6497C20.2994 13.5971 20.3254 13.5331 20.3395 13.4578H20.7971C20.7857 13.6057 20.7433 13.7368 20.6701 13.8512C20.597 13.9646 20.4973 14.0535 20.3712 14.118C20.2451 14.1815 20.097 14.2132 19.9268 14.2132Z" fill="white"/>
<path d="M22.1138 14.2132C21.9154 14.2132 21.7434 14.1683 21.5979 14.0785C21.4524 13.9887 21.3396 13.863 21.2593 13.7014C21.1799 13.5399 21.1403 13.3512 21.1403 13.1352C21.1403 12.9192 21.1799 12.73 21.2593 12.5676C21.3396 12.4052 21.4524 12.279 21.5979 12.1892C21.7434 12.0993 21.9154 12.0544 22.1138 12.0544C22.3122 12.0544 22.4841 12.0993 22.6296 12.1892C22.7751 12.279 22.8875 12.4052 22.9669 12.5676C23.0472 12.73 23.0872 12.9192 23.0872 13.1352C23.0872 13.3512 23.0472 13.5399 22.9669 13.7014C22.8875 13.863 22.7751 13.9887 22.6296 14.0785C22.4841 14.1683 22.3122 14.2132 22.1138 14.2132ZM22.1164 13.8185C22.224 13.8185 22.314 13.7881 22.3863 13.7273C22.4586 13.6656 22.5124 13.583 22.5476 13.4796C22.5838 13.3761 22.6019 13.2609 22.6019 13.1338C22.6019 13.0059 22.5838 12.8902 22.5476 12.7868C22.5124 12.6824 22.4586 12.5993 22.3863 12.5377C22.314 12.4759 22.224 12.4451 22.1164 12.4451C22.0062 12.4451 21.9145 12.4759 21.8413 12.5377C21.769 12.5993 21.7148 12.6824 21.6786 12.7868C21.6433 12.8902 21.6257 13.0059 21.6257 13.1338C21.6257 13.2609 21.6433 13.3761 21.6786 13.4796C21.7148 13.583 21.769 13.6656 21.8413 13.7273C21.9145 13.7881 22.0062 13.8185 22.1164 13.8185Z" fill="white"/>
<path d="M23.531 14.1724V12.0817H23.9951V12.4301H24.0164C24.0535 12.3094 24.1168 12.2164 24.2069 12.1511C24.2978 12.0849 24.4014 12.0517 24.5176 12.0517C24.5441 12.0517 24.5737 12.0531 24.6063 12.0558C24.6398 12.0576 24.6676 12.0608 24.6898 12.0653V12.5186C24.6694 12.5113 24.6373 12.505 24.5932 12.4996C24.55 12.4932 24.5079 12.49 24.4674 12.49C24.3801 12.49 24.3016 12.5095 24.232 12.5486C24.1632 12.5867 24.1089 12.6398 24.0693 12.7078C24.0295 12.7759 24.0099 12.8544 24.0099 12.9433V14.1724H23.531Z" fill="white"/>
<path d="M25.7154 14.2092C25.5557 14.2092 25.413 14.167 25.2868 14.0826C25.1608 13.9982 25.061 13.8757 24.988 13.7151C24.9147 13.5545 24.8781 13.3594 24.8781 13.1298C24.8781 12.8975 24.9151 12.7015 24.9893 12.5417C25.0642 12.3811 25.1651 12.26 25.2922 12.1783C25.4191 12.0957 25.5607 12.0545 25.7168 12.0545C25.8357 12.0545 25.9337 12.0753 26.0104 12.1171C26.087 12.1579 26.1479 12.2074 26.1929 12.2654C26.2379 12.3226 26.2727 12.3766 26.2974 12.4274H26.3173V11.3848H26.7973V14.1724H26.3266V13.843H26.2974C26.2727 13.8938 26.237 13.9478 26.1902 14.005C26.1436 14.0613 26.0818 14.1094 26.0052 14.1493C25.9283 14.1892 25.8319 14.2092 25.7154 14.2092ZM25.8491 13.8049C25.9504 13.8049 26.0368 13.7768 26.1083 13.7205C26.1798 13.6633 26.2338 13.5839 26.2709 13.4823C26.308 13.3807 26.3266 13.2623 26.3266 13.1271C26.3266 12.9918 26.308 12.8743 26.2709 12.7745C26.2347 12.6747 26.1809 12.5971 26.1097 12.5417C26.0391 12.4864 25.9522 12.4587 25.8491 12.4587C25.7423 12.4587 25.6532 12.4873 25.5817 12.5445C25.5105 12.6016 25.4566 12.6806 25.4205 12.7813C25.3843 12.882 25.3662 12.9973 25.3662 13.1271C25.3662 13.2577 25.3843 13.3743 25.4205 13.4769C25.4576 13.5785 25.5116 13.6588 25.5831 13.7178C25.6555 13.7759 25.7441 13.8049 25.8491 13.8049Z" fill="white"/>
<path d="M27.3448 14.1724V12.0817H27.8237V14.1724H27.3448ZM27.5855 11.7849C27.5097 11.7849 27.4446 11.7591 27.3898 11.7074C27.3351 11.6547 27.3077 11.5916 27.3077 11.5181C27.3077 11.4437 27.3351 11.3807 27.3898 11.329C27.4446 11.2763 27.5097 11.25 27.5855 11.25C27.6622 11.25 27.7275 11.2763 27.7814 11.329C27.8359 11.3807 27.8633 11.4437 27.8633 11.5181C27.8633 11.5916 27.8359 11.6547 27.7814 11.7074C27.7275 11.7591 27.6622 11.7849 27.5855 11.7849Z" fill="white"/>
<path d="M28.832 12.9473V14.1724H28.3531V12.0817H28.811V12.4369H28.8347C28.8815 12.3199 28.9559 12.2268 29.0582 12.1579C29.1613 12.0889 29.2889 12.0544 29.4404 12.0544C29.5807 12.0544 29.7028 12.0853 29.8069 12.147C29.9118 12.2087 29.993 12.2981 30.0503 12.4151C30.1084 12.5322 30.1371 12.6742 30.1362 12.8412V14.1724H29.6574V12.9174C29.6574 12.7777 29.6221 12.6683 29.5517 12.5894C29.4821 12.5104 29.3855 12.4709 29.262 12.4709C29.1783 12.4709 29.1036 12.49 29.0385 12.5281C28.974 12.5653 28.9234 12.6193 28.8863 12.6901C28.8501 12.7609 28.832 12.8466 28.832 12.9473Z" fill="white"/>
<path d="M31.5439 15C31.372 15 31.2243 14.9759 31.1008 14.9278C30.9773 14.8807 30.8782 14.8171 30.8033 14.7373C30.7282 14.6574 30.6762 14.569 30.647 14.4719L31.0784 14.3643C31.0978 14.4052 31.1259 14.4455 31.163 14.4855C31.2001 14.5263 31.2498 14.5599 31.3125 14.5862C31.3761 14.6134 31.4557 14.627 31.5518 14.627C31.6877 14.627 31.8002 14.593 31.8893 14.5249C31.9782 14.4578 32.0227 14.3471 32.0227 14.1928V13.7967H31.999C31.9743 13.8475 31.9381 13.8997 31.8904 13.9533C31.8438 14.0068 31.7816 14.0517 31.704 14.088C31.6273 14.1243 31.5308 14.1425 31.4143 14.1425C31.2582 14.1425 31.1166 14.1048 30.9897 14.0295C30.8637 13.9533 30.7631 13.8398 30.6882 13.6892C30.614 13.5377 30.5771 13.348 30.5771 13.1202C30.5771 12.8906 30.614 12.6969 30.6882 12.539C30.7631 12.3802 30.8642 12.26 30.9911 12.1783C31.118 12.0957 31.2596 12.0544 31.4156 12.0544C31.5346 12.0544 31.6326 12.0753 31.7092 12.1171C31.7868 12.1579 31.8486 12.2073 31.8945 12.2654C31.9404 12.3226 31.9752 12.3766 31.999 12.4274H32.0254V12.0817H32.4977V14.2064C32.4977 14.3852 32.4561 14.5331 32.3733 14.6502C32.2903 14.7672 32.177 14.8548 32.0334 14.9129C31.8897 14.9709 31.7264 15 31.5439 15ZM31.548 13.7559C31.6493 13.7559 31.7357 13.7305 31.8072 13.6797C31.8786 13.6288 31.9329 13.5558 31.9698 13.4605C32.0069 13.3652 32.0254 13.2509 32.0254 13.1175C32.0254 12.9859 32.0069 12.8707 31.9698 12.7718C31.9336 12.6728 31.88 12.5962 31.8085 12.5417C31.738 12.4864 31.6511 12.4587 31.548 12.4587C31.4412 12.4587 31.3521 12.4873 31.2808 12.5445C31.2094 12.6016 31.1555 12.6801 31.1193 12.7799C31.0831 12.8788 31.065 12.9914 31.065 13.1175C31.065 13.2454 31.0831 13.3575 31.1193 13.4537C31.1564 13.549 31.2107 13.6234 31.282 13.6769C31.3543 13.7296 31.443 13.7559 31.548 13.7559Z" fill="white"/>
<path d="M34.6313 12.6343L34.1947 12.6833C34.1825 12.6379 34.1608 12.5953 34.1301 12.5553C34.1 12.5154 34.0595 12.4832 34.0084 12.4587C33.9572 12.4342 33.8946 12.4219 33.8204 12.4219C33.7209 12.4219 33.637 12.4442 33.5691 12.4887C33.5022 12.5331 33.4691 12.5907 33.47 12.6615C33.4691 12.7223 33.4906 12.7718 33.5347 12.8099C33.5797 12.848 33.6539 12.8793 33.7571 12.9038L34.1036 12.98C34.2959 13.0227 34.4386 13.0903 34.532 13.1828C34.6265 13.2754 34.674 13.3965 34.675 13.5463C34.674 13.6778 34.6365 13.794 34.5625 13.8947C34.4892 13.9945 34.3875 14.0726 34.257 14.1288C34.1264 14.1851 33.9765 14.2132 33.8073 14.2132C33.5585 14.2132 33.3585 14.1597 33.2068 14.0526C33.055 13.9446 32.9647 13.7945 32.9355 13.6021L33.4024 13.5558C33.4237 13.6502 33.4687 13.7214 33.5374 13.7695C33.6062 13.8176 33.6958 13.8416 33.8059 13.8416C33.9197 13.8416 34.0109 13.8176 34.0798 13.7695C34.1495 13.7214 34.1843 13.662 34.1843 13.5912C34.1843 13.5313 34.1617 13.4818 34.1167 13.4428C34.0726 13.4038 34.0038 13.3738 33.9104 13.353L33.5639 13.2781C33.3689 13.2364 33.2248 13.1661 33.1314 13.0671C33.0378 12.9673 32.9916 12.8412 32.9925 12.6887C32.9916 12.5599 33.0256 12.4483 33.0943 12.3539C33.164 12.2586 33.2606 12.1851 33.3841 12.1334C33.5083 12.0808 33.6517 12.0544 33.8138 12.0544C34.052 12.0544 34.2393 12.1066 34.3759 12.211C34.5137 12.3153 34.5987 12.4564 34.6313 12.6343Z" fill="white"/>
</g>
<defs>
<clipPath id="clip0_25_22">
<rect width="38" height="15" fill="white"/>
</clipPath>
</defs>
</svg>
